<?xml version="1.0" encoding="UTF-8" standalone="no"?>
<!DOCTYPE svg PUBLIC "-//W3C//DTD SVG 1.1//EN"
 "http://www.w3.org/Graphics/SVG/1.1/DTD/svg11.dtd">
<!-- Generated by graphviz version 2.36.0 (20140111.2315)
 -->
<!-- Title: snakemake_dag Pages: 1 -->
<svg width="231pt" height="260pt"
 viewBox="0.00 0.00 231.00 260.00" xmlns="http://www.w3.org/2000/svg" xmlns:xlink="http://www.w3.org/1999/xlink">
<g id="graph0" class="graph" transform="scale(1 1) rotate(0) translate(4 256)">
<title>snakemake_dag</title>
<polygon fill="white" stroke="none" points="-4,4 -4,-256 227,-256 227,4 -4,4"/>
<!-- 0 -->
<g id="node1" class="node"><title>0</title>
<path fill="none" stroke="#56a9d8" stroke-width="2" d="M90.25,-252C90.25,-252 11.75,-252 11.75,-252 5.75,-252 -0.25,-246 -0.25,-240 -0.25,-240 -0.25,-228 -0.25,-228 -0.25,-222 5.75,-216 11.75,-216 11.75,-216 90.25,-216 90.25,-216 96.25,-216 102.25,-222 102.25,-228 102.25,-228 102.25,-240 102.25,-240 102.25,-246 96.25,-252 90.25,-252"/>
<text text-anchor="middle" x="51" y="-237" font-family="sans" font-size="10.00">compress</text>
<text text-anchor="middle" x="51" y="-226" font-family="sans" font-size="10.00">name: dataset&#45;01</text>
</g>
<!-- 4 -->
<g id="node5" class="node"><title>4</title>
<path fill="none" stroke="#56d8a9" stroke-width="2" d="M126,-180C126,-180 96,-180 96,-180 90,-180 84,-174 84,-168 84,-168 84,-156 84,-156 84,-150 90,-144 96,-144 96,-144 126,-144 126,-144 132,-144 138,-150 138,-156 138,-156 138,-168 138,-168 138,-174 132,-180 126,-180"/>
<text text-anchor="middle" x="111" y="-159.5" font-family="sans" font-size="10.00">bag</text>
</g>
<!-- 0&#45;&gt;4 -->
<g id="edge5" class="edge"><title>0&#45;&gt;4</title>
<path fill="none" stroke="grey" stroke-width="2" d="M65.8315,-215.697C73.0247,-207.305 81.7967,-197.07 89.6903,-187.861"/>
<polygon fill="grey" stroke="grey" stroke-width="2" points="92.4886,-189.975 96.3391,-180.104 87.1738,-185.419 92.4886,-189.975"/>
</g>
<!-- 1 -->
<g id="node2" class="node"><title>1</title>
<path fill="none" stroke="#59d856" stroke-width="2" d="M90,-108C90,-108 60,-108 60,-108 54,-108 48,-102 48,-96 48,-96 48,-84 48,-84 48,-78 54,-72 60,-72 60,-72 90,-72 90,-72 96,-72 102,-78 102,-84 102,-84 102,-96 102,-96 102,-102 96,-108 90,-108"/>
<text text-anchor="middle" x="75" y="-87.5" font-family="sans" font-size="10.00">backup</text>
</g>
<!-- 2 -->
<g id="node3" class="node"><title>2</title>
<path fill="none" stroke="#d85656" stroke-width="2" d="M126,-36C126,-36 96,-36 96,-36 90,-36 84,-30 84,-24 84,-24 84,-12 84,-12 84,-6 90,-0 96,-0 96,-0 126,-0 126,-0 132,-0 138,-6 138,-12 138,-12 138,-24 138,-24 138,-30 132,-36 126,-36"/>
<text text-anchor="middle" x="111" y="-15.5" font-family="sans" font-size="10.00">final</text>
</g>
<!-- 1&#45;&gt;2 -->
<g id="edge2" class="edge"><title>1&#45;&gt;2</title>
<path fill="none" stroke="grey" stroke-width="2" d="M83.8989,-71.6966C87.9968,-63.7284 92.9488,-54.0995 97.4927,-45.2641"/>
<polygon fill="grey" stroke="grey" stroke-width="2" points="100.742,-46.598 102.203,-36.1043 94.5174,-43.3965 100.742,-46.598"/>
</g>
<!-- 3 -->
<g id="node4" class="node"><title>3</title>
<path fill="none" stroke="#56a9d8" stroke-width="2" d="M211.25,-252C211.25,-252 132.75,-252 132.75,-252 126.75,-252 120.75,-246 120.75,-240 120.75,-240 120.75,-228 120.75,-228 120.75,-222 126.75,-216 132.75,-216 132.75,-216 211.25,-216 211.25,-216 217.25,-216 223.25,-222 223.25,-228 223.25,-228 223.25,-240 223.25,-240 223.25,-246 217.25,-252 211.25,-252"/>
<text text-anchor="middle" x="172" y="-237" font-family="sans" font-size="10.00">compress</text>
<text text-anchor="middle" x="172" y="-226" font-family="sans" font-size="10.00">name: dataset&#45;02</text>
</g>
<!-- 3&#45;&gt;4 -->
<g id="edge4" class="edge"><title>3&#45;&gt;4</title>
<path fill="none" stroke="grey" stroke-width="2" d="M156.921,-215.697C149.608,-207.305 140.69,-197.07 132.665,-187.861"/>
<polygon fill="grey" stroke="grey" stroke-width="2" points="135.114,-185.344 125.905,-180.104 129.836,-189.943 135.114,-185.344"/>
</g>
<!-- 4&#45;&gt;1 -->
<g id="edge1" class="edge"><title>4&#45;&gt;1</title>
<path fill="none" stroke="grey" stroke-width="2" d="M102.101,-143.697C98.0032,-135.728 93.0512,-126.1 88.5073,-117.264"/>
<polygon fill="grey" stroke="grey" stroke-width="2" points="91.4826,-115.396 83.7965,-108.104 85.2575,-118.598 91.4826,-115.396"/>
</g>
<!-- 5 -->
<g id="node6" class="node"><title>5</title>
<path fill="none" stroke="#d8ac56" stroke-width="2" d="M162,-108C162,-108 132,-108 132,-108 126,-108 120,-102 120,-96 120,-96 120,-84 120,-84 120,-78 126,-72 132,-72 132,-72 162,-72 162,-72 168,-72 174,-78 174,-84 174,-84 174,-96 174,-96 174,-102 168,-108 162,-108"/>
<text text-anchor="middle" x="147" y="-87.5" font-family="sans" font-size="10.00">logit</text>
</g>
<!-- 4&#45;&gt;5 -->
<g id="edge6" class="edge"><title>4&#45;&gt;5</title>
<path fill="none" stroke="grey" stroke-width="2" d="M119.899,-143.697C123.997,-135.728 128.949,-126.1 133.493,-117.264"/>
<polygon fill="grey" stroke="grey" stroke-width="2" points="136.742,-118.598 138.203,-108.104 130.517,-115.396 136.742,-118.598"/>
</g>
<!-- 5&#45;&gt;2 -->
<g id="edge3" class="edge"><title>5&#45;&gt;2</title>
<path fill="none" stroke="grey" stroke-width="2" d="M138.101,-71.6966C134.003,-63.7284 129.051,-54.0995 124.507,-45.2641"/>
<polygon fill="grey" stroke="grey" stroke-width="2" points="127.483,-43.3965 119.797,-36.1043 121.258,-46.598 127.483,-43.3965"/>
</g>
</g>
</svg>
