<?xml version="1.0" encoding="UTF-8" standalone="no"?>
<!DOCTYPE svg PUBLIC "-//W3C//DTD SVG 1.1//EN"
 "http://www.w3.org/Graphics/SVG/1.1/DTD/svg11.dtd">
<!-- Generated by graphviz version 2.36.0 (20140111.2315)
 -->
<!-- Title: snakemake_dag Pages: 1 -->
<svg width="231pt" height="188pt"
 viewBox="0.00 0.00 231.00 188.00" xmlns="http://www.w3.org/2000/svg" xmlns:xlink="http://www.w3.org/1999/xlink">
<g id="graph0" class="graph" transform="scale(1 1) rotate(0) translate(4 184)">
<title>snakemake_dag</title>
<polygon fill="white" stroke="none" points="-4,4 -4,-184 227,-184 227,4 -4,4"/>
<!-- 0 -->
<g id="node1" class="node"><title>0</title>
<path fill="none" stroke="#d6d856" stroke-width="2" d="M90.25,-180C90.25,-180 11.75,-180 11.75,-180 5.75,-180 -0.25,-174 -0.25,-168 -0.25,-168 -0.25,-156 -0.25,-156 -0.25,-150 5.75,-144 11.75,-144 11.75,-144 90.25,-144 90.25,-144 96.25,-144 102.25,-150 102.25,-156 102.25,-156 102.25,-168 102.25,-168 102.25,-174 96.25,-180 90.25,-180"/>
<text text-anchor="middle" x="51" y="-165" font-family="sans" font-size="10.00">compress</text>
<text text-anchor="middle" x="51" y="-154" font-family="sans" font-size="10.00">name: dataset&#45;02</text>
</g>
<!-- 1 -->
<g id="node2" class="node"><title>1</title>
<path fill="none" stroke="#59d856" stroke-width="2" d="M126,-108C126,-108 96,-108 96,-108 90,-108 84,-102 84,-96 84,-96 84,-84 84,-84 84,-78 90,-72 96,-72 96,-72 126,-72 126,-72 132,-72 138,-78 138,-84 138,-84 138,-96 138,-96 138,-102 132,-108 126,-108"/>
<text text-anchor="middle" x="111" y="-87.5" font-family="sans" font-size="10.00">bag</text>
</g>
<!-- 0&#45;&gt;1 -->
<g id="edge1" class="edge"><title>0&#45;&gt;1</title>
<path fill="none" stroke="grey" stroke-width="2" d="M65.8315,-143.697C73.0247,-135.305 81.7967,-125.07 89.6903,-115.861"/>
<polygon fill="grey" stroke="grey" stroke-width="2" points="92.4886,-117.975 96.3391,-108.104 87.1738,-113.419 92.4886,-117.975"/>
</g>
<!-- 3 -->
<g id="node4" class="node"><title>3</title>
<path fill="none" stroke="#56d8d8" stroke-width="2" d="M126,-36C126,-36 96,-36 96,-36 90,-36 84,-30 84,-24 84,-24 84,-12 84,-12 84,-6 90,-0 96,-0 96,-0 126,-0 126,-0 132,-0 138,-6 138,-12 138,-12 138,-24 138,-24 138,-30 132,-36 126,-36"/>
<text text-anchor="middle" x="111" y="-15.5" font-family="sans" font-size="10.00">final</text>
</g>
<!-- 1&#45;&gt;3 -->
<g id="edge3" class="edge"><title>1&#45;&gt;3</title>
<path fill="none" stroke="grey" stroke-width="2" d="M111,-71.6966C111,-63.9827 111,-54.7125 111,-46.1124"/>
<polygon fill="grey" stroke="grey" stroke-width="2" points="114.5,-46.1043 111,-36.1043 107.5,-46.1044 114.5,-46.1043"/>
</g>
<!-- 2 -->
<g id="node3" class="node"><title>2</title>
<path fill="none" stroke="#d6d856" stroke-width="2" d="M211.25,-180C211.25,-180 132.75,-180 132.75,-180 126.75,-180 120.75,-174 120.75,-168 120.75,-168 120.75,-156 120.75,-156 120.75,-150 126.75,-144 132.75,-144 132.75,-144 211.25,-144 211.25,-144 217.25,-144 223.25,-150 223.25,-156 223.25,-156 223.25,-168 223.25,-168 223.25,-174 217.25,-180 211.25,-180"/>
<text text-anchor="middle" x="172" y="-165" font-family="sans" font-size="10.00">compress</text>
<text text-anchor="middle" x="172" y="-154" font-family="sans" font-size="10.00">name: dataset&#45;01</text>
</g>
<!-- 2&#45;&gt;1 -->
<g id="edge2" class="edge"><title>2&#45;&gt;1</title>
<path fill="none" stroke="grey" stroke-width="2" d="M156.921,-143.697C149.608,-135.305 140.69,-125.07 132.665,-115.861"/>
<polygon fill="grey" stroke="grey" stroke-width="2" points="135.114,-113.344 125.905,-108.104 129.836,-117.943 135.114,-113.344"/>
</g>
</g>
</svg>
