<?xml version="1.0" encoding="UTF-8" standalone="no"?>
<!-- Created with Inkscape (http://www.inkscape.org/) -->

<svg
   xmlns:dc="http://purl.org/dc/elements/1.1/"
   xmlns:cc="http://creativecommons.org/ns#"
   xmlns:rdf="http://www.w3.org/1999/02/22-rdf-syntax-ns#"
   xmlns:svg="http://www.w3.org/2000/svg"
   xmlns="http://www.w3.org/2000/svg"
   xmlns:sodipodi="http://sodipodi.sourceforge.net/DTD/sodipodi-0.dtd"
   xmlns:inkscape="http://www.inkscape.org/namespaces/inkscape"
   id="svg3554"
   version="1.1"
   inkscape:version="0.48.4 r9939"
   width="258"
   height="137"
   sodipodi:docname="spark-logo.svg">
  <metadata
     id="metadata3560">
    <rdf:RDF>
      <cc:Work
         rdf:about="">
        <dc:format>image/svg+xml</dc:format>
        <dc:type
           rdf:resource="http://purl.org/dc/dcmitype/StillImage" />
      </cc:Work>
    </rdf:RDF>
  </metadata>
  <defs
     id="defs3558" />
  <sodipodi:namedview
     pagecolor="#ffffff"
     bordercolor="#666666"
     borderopacity="1"
     objecttolerance="10"
     gridtolerance="10"
     guidetolerance="10"
     inkscape:pageopacity="0"
     inkscape:pageshadow="2"
     inkscape:window-width="1918"
     inkscape:window-height="1059"
     id="namedview3556"
     showgrid="false"
     inkscape:zoom="1.4883721"
     inkscape:cx="117.24219"
     inkscape:cy="68.5"
     inkscape:window-x="0"
     inkscape:window-y="19"
     inkscape:window-maximized="0"
     inkscape:current-layer="svg3554" />
  <path
     style="fill:#000000"
     d="m 39.73873,133.99648 c -0.65341,-1.70276 4.26748,-39.026124 5.75745,-43.668355 2.45182,-7.639023 7.28637,-13.237468 14.81632,-17.157396 3.70795,-1.93028 6.02493,-2.342604 13.16386,-2.342604 8.03839,0 8.97689,0.219783 13,3.044405 6.52994,4.584672 9.3518,10.356385 9.26761,18.955595 -0.0537,5.48719 -0.63126,8.094295 -2.67232,12.063455 -2.78973,5.42504 -8.58196,11.2554 -13.94941,14.04122 -4.66272,2.42004 -16.33878,3.03677 -20.95744,1.10697 l -3.63769,-1.51993 -1.11801,7.51695 c -0.6149,4.13432 -1.36475,7.91618 -1.66632,8.40414 -0.90614,1.46616 -11.42026,1.07688 -12.00405,-0.44445 z m 11.28284,-9.72114 c 0.58475,-4.42903 1.34507,-8.33468 1.68961,-8.67922 0.34454,-0.34454 2.20198,0.12488 4.12764,1.04317 8.98121,4.28284 18.84539,2.63473 26.95503,-4.50366 14.55182,-12.809025 11.97406,-33.405647 -4.85632,-38.802535 -7.28851,-2.337161 -17.4461,0.652715 -24.22136,7.129535 -5.74519,5.492128 -7.33063,10.348814 -9.9634,30.521 -1.34215,10.28347 -2.44027,19.29286 -2.44027,20.02087 0,0.86734 1.31783,1.32363 3.82294,1.32363 l 3.82295,0 1.06318,-8.05279 z M 63.8125,109.78542 c -5.94603,-2.04451 -8.5,-5.51873 -8.5,-11.562715 0,-5.836858 1.72794,-9.646428 6.00955,-13.249164 7.87454,-6.625988 18.16614,-5.007706 22.59283,3.552564 4.26617,8.24986 -2.87123,20.290345 -13.10238,22.103145 -1.65,0.29236 -4.8,-0.0874 -7,-0.84383 z m 10.5156,-3.3089 c 9.11564,-4.84406 10.79307,-16.876632 2.9949,-21.483124 -6.17065,-3.645089 -14.52781,-0.359541 -18.15754,7.138481 -2.84512,5.877218 -1.79898,10.657153 3.04492,13.912623 4.11759,2.76733 7.49641,2.88779 12.11772,0.43202 z M 10.9963,120.9358 c -2.0989,-0.77963 -4.73429,-2.24779 -5.85641,-3.26259 -2.73274,-2.47138 -6.0953,-9.20454 -5.44416,-10.90138 0.59262,-1.54435 9.76058,-6.4437 12.05785,-6.4437 0.82916,0 2.21768,1.37322 3.0856,3.05159 1.91012,3.69378 5.00691,5.00696 8.73925,3.70586 4.00786,-1.39715 5.14354,-4.06493 3.27153,-7.685015 -0.83778,-1.62009 -1.98026,-3.22807 -2.53885,-3.5733 -0.55859,-0.34523 -3.69108,-3.736248 -6.96108,-7.535605 -8.99388,-10.449814 -9.84682,-16.85923 -3.46839,-26.0633 5.19089,-7.490456 18.80601,-11.343196 26.33208,-7.451318 2.97038,1.536046 9.09878,7.97686 9.09878,9.562626 0,1.273973 -9.84842,8.988457 -11.47479,8.988457 -0.71235,0 -2.02764,-1.117855 -2.92285,-2.484123 -0.89521,-1.366267 -2.70505,-2.754532 -4.02187,-3.085031 -2.77835,-0.697322 -6.58049,1.028126 -6.58049,2.986292 0,0.740724 3.61767,5.242061 8.03926,10.00297 8.95542,9.642669 9.96074,11.527725 9.96074,18.677112 0,12.202055 -8.70314,21.055565 -22,22.380085 -3.55586,0.35421 -6.84895,0.0468 -9.3162,-0.86964 z m 17.83652,-4.2285 c 4.84848,-2.50399 10.16707,-9.19588 11.05022,-13.90348 1.26476,-6.741755 -0.164,-9.822421 -9.10311,-19.627914 -7.0695,-7.754688 -8.46743,-9.838017 -8.46743,-12.618971 0,-2.884151 0.48679,-3.534256 3.62968,-4.847441 4.16809,-1.741537 8.39194,-0.616283 10.84776,2.889887 1.36901,1.954535 1.48276,1.928321 5.52508,-1.273249 l 4.12728,-3.268871 -3.27979,-3.383889 c -7.88577,-8.136043 -22.08898,-5.619095 -28.32343,5.019189 -4.62772,7.896596 -2.99949,13.191857 7.42136,24.135564 6.2675,6.58197 8.05206,9.38192 8.05206,12.633615 0,3.72886 -5.06104,7.86639 -9.62218,7.86639 -3.44806,0 -7.4807,-2.84862 -8.57432,-6.05683 -0.40674,-1.1932 -1.29841,-1.05568 -5.14773,0.79382 -2.56067,1.23035 -4.65409,2.58035 -4.65203,3 0.01,1.95169 4.30394,7.48583 7.23712,9.32643 4.19865,2.6347 13.49157,2.30488 19.27946,-0.68425 z m 80.70716,2.5044 c -14.64435,-7.24882 -16.40102,-27.439173 -3.48955,-40.107297 6.40581,-6.285082 12.08433,-8.732354 20.26207,-8.732354 10.73278,0 19.03752,5.47968 22.02535,14.532881 1.34044,4.061575 0.79975,15.37209 -1.33484,27.9232 l -1.19051,7 -6.25,0.29772 c -5.45481,0.25984 -6.25195,0.069 -6.26531,-1.5 -0.011,-1.29395 -0.2409,-1.44231 -0.82031,-0.52945 -2.31981,3.65486 -16.42115,4.34053 -22.9369,1.1153 z m 16.25884,-0.98444 c 4.05465,-1.02098 4.42061,-1.38876 5.04211,-5.06739 0.79812,-4.72405 0.36158,-5.37843 -2.54887,-3.8208 -3.37913,1.80846 -10.2575,1.52866 -13.79529,-0.56116 -8.01754,-4.73608 -8.16059,-17.084701 -0.27478,-23.720176 6.88417,-5.792646 16.97937,-5.514975 21.50142,0.591403 2.35398,3.178706 2.76968,11.384158 1.2376,24.428993 l -0.85149,7.25 3.94119,0 3.94119,0 1.1603,-9.44158 c 2.31767,-18.85929 1.3436,-24.556268 -5.17761,-30.281969 -8.9141,-7.826679 -22.46504,-6.40684 -32.25108,3.3792 -5.01823,5.018233 -7.36253,10.631704 -7.38905,17.693214 -0.0363,9.679645 4.85066,16.569655 13.7065,19.324285 4.8964,1.52304 6.48548,1.55358 11.75786,0.22598 z m 0.7958,-11.37903 c 1.76983,-0.81394 4.01819,-2.05144 4.99635,-2.75 1.44732,-1.03361 1.93407,-1.02073 2.61419,0.0692 1.19201,1.91022 2.0319,-8.239895 1.0442,-12.619218 -1.2326,-5.465238 -4.12162,-7.720087 -9.89131,-7.720087 -13.27356,0 -19.76513,17.087425 -8.80417,23.174765 3.02494,1.67996 6.15645,1.63171 10.04074,-0.15466 z m 22.33899,12.67587 c -0.90356,-1.46201 4.27459,-37.093599 5.82685,-40.095333 2.6316,-5.088965 7.16491,-7.513389 14.86215,-7.948323 3.77018,-0.213034 7.23666,0.003 7.70329,0.480173 0.46663,0.477129 0.54201,3.342508 0.16751,6.367508 l -0.68091,5.5 -4.17212,0.303692 c -2.29466,0.167031 -4.65767,0.888752 -5.25113,1.603825 -0.59345,0.715073 -1.99469,8.228411 -3.11386,16.696308 -1.11917,8.4679 -2.22954,15.95868 -2.46749,16.64618 -0.48512,1.40167 -12.03634,1.8018 -12.87429,0.44597 z m 12.84755,-18.30339 c 1.15642,-8.805169 2.64393,-16.323318 3.41301,-17.250005 0.82116,-0.989439 2.85535,-1.64258 5.11577,-1.64258 3.40287,0 3.8108,-0.291213 4.37756,-3.125 1.22429,-6.121444 1.14697,-6.208678 -4.94541,-5.579889 -6.66137,0.687514 -11.77475,4.126373 -13.29898,8.943849 -0.56747,1.793572 -1.73443,8.66104 -2.59323,15.26104 -0.8588,6.600005 -1.82532,13.715545 -2.14784,15.812315 l -0.58639,3.8123 4.30786,-0.3123 4.30785,-0.31231 2.0498,-15.60742 z m 13.1915,18.36656 c -0.71237,-1.15263 6.13128,-53.39267 7.25152,-55.353513 0.74202,-1.298809 0.48312,-1.512598 -1.39662,-1.153263 -1.37303,0.262472 -5.78405,-1.188065 -10.89227,-3.581859 -7.05759,-3.307298 -8.87901,-4.639952 -10.23868,-7.491216 -3.60324,-7.556079 -0.32521,-10.622618 17.28365,-16.168504 7.75487,-2.442385 11.36326,-4.064309 11.72356,-5.269587 0.28629,-0.957662 1.22897,-5.902372 2.09485,-10.988245 1.93318,-11.354771 2.18214,-12.076558 5.34751,-15.502958 1.72907,-1.8716555 3.53888,-2.75 5.66632,-2.75 3.88252,0 6.51406,2.7257097 13.0336,13.5 2.66245,4.4 4.86907,8.064957 4.90361,8.144349 0.0345,0.07939 5.91279,-1.392891 13.06279,-3.271739 14.5158,-3.814403 18.89634,-3.791604 20.67293,0.107594 1.75883,3.860193 0.365,6.568637 -9.14339,17.767235 -4.96625,5.849037 -9.02954,11.137565 -9.02954,11.752283 0,0.614719 2.25,5.521913 5,10.904877 6.7785,13.268515 6.65497,18.734049 -0.47662,21.087686 -1.92059,0.633851 -4.28655,0.928452 -5.25768,0.654669 -15.25253,-4.300005 -19.27061,-5.844346 -19.32909,-7.429099 -0.0526,-1.426491 -0.20658,-1.378637 -0.90769,0.282145 -0.46437,1.1 -3.36084,4.459628 -6.43661,7.46584 -3.07577,3.006212 -5.59231,5.811766 -5.59231,6.234566 0,0.422799 4.5,7.038654 10,14.701909 5.5,7.66325 10,14.6452 10,15.51544 0,1.30847 -1.341,1.57908 -7.75,1.56393 l -7.75,-0.0183 -7.5,-11.42554 -7.5,-11.425535 -1.5,11.193855 -1.5,11.19385 -6.66396,0.29373 c -3.66517,0.16155 -6.89432,-0.079 -7.17588,-0.53459 z m 43.69535,-2.50914 c -0.41939,-0.6875 -4.94594,-7.08948 -10.05901,-14.22661 -5.11308,-7.137145 -9.2965,-13.675143 -9.2965,-14.528895 0,-0.853752 2.8336,-4.360689 6.29689,-7.793193 5.72113,-5.670278 6.25964,-6.559975 5.88951,-9.73038 -0.22406,-1.919205 -0.73084,-3.689377 -1.12619,-3.933716 -0.39535,-0.244339 -4.26586,3.584831 -8.60113,8.509268 -11.09148,12.598818 -11.44848,12.379976 -9.04807,-5.546479 0.73647,-5.5 1.21156,-10.14621 1.05577,-10.32491 -0.1558,-0.178701 -2.23706,0.927582 -4.62502,2.458405 -2.38797,1.530824 -4.49549,2.880759 -4.68337,2.999856 -0.24882,0.157719 -7.15307,50.428954 -7.1577,52.116654 -3.8e-4,0.1375 1.99399,0.25 4.43192,0.25 5.19077,0 4.91119,0.57823 6.6482,-13.75 0.87997,-7.258715 1.63205,-10.250005 2.5771,-10.250005 0.73397,0 5.0487,5.6137 9.58829,12.474905 l 8.2538,12.47489 5.30902,0.0251 c 3.99171,0.0189 5.11981,-0.28506 4.54649,-1.22491 z M 207.63523,64.64466 c 1.56077,-1.983932 2.42307,-2.230136 6,-1.71312 2.2975,0.332084 6.3913,1.230641 9.09733,1.996791 2.70604,0.76615 5.12021,1.192857 5.36483,0.948236 0.24462,-0.24462 -1.40691,-3.877644 -3.67006,-8.073387 -2.26316,-4.195743 -4.11483,-8.202505 -4.11483,-8.903917 0,-0.701411 3.10149,-4.858517 6.8922,-9.238013 l 6.8922,-7.96272 -8.6422,2.311406 c -12.63643,3.379687 -12.29295,3.482299 -17.30474,-5.169546 -2.3856,-4.118255 -4.59662,-7.493255 -4.91338,-7.5 -0.31675,-0.0067 -1.36137,4.475393 -2.32136,9.960308 l -1.74545,9.972574 -10.46047,3.382874 -10.46048,3.382875 7.53184,2.875647 c 4.14251,1.581606 7.53184,3.221654 7.53184,3.644552 0,0.422898 0.64844,0.768905 1.44098,0.768905 2.37909,0 2.48001,1.154791 1.00863,11.54151 -0.7759,5.477169 -1.41947,10.597676 -1.43017,11.378903 -0.0172,1.253971 8.3283,-7.28006 13.30329,-13.603878 z m 33.84853,13.028477 c 2.90847,-2.632129 2.15851,-6.136748 -3.69272,-17.256363 -3.0132,-5.726242 -5.47854,-10.815281 -5.47854,-11.308974 0,-0.493692 4.09766,-5.708585 9.1059,-11.588649 9.74092,-11.436588 11.14143,-13.766506 9.8076,-16.316113 -1.47725,-2.823748 -4.30693,-2.705311 -17.52918,0.73368 -7.08637,1.843106 -13.42614,3.36017 -14.08837,3.371254 -0.66224,0.01108 -3.72979,-4.212301 -6.81679,-9.3853 C 206.35773,5.1411101 204.39044,3.0361623 201.17933,3.4977675 197.2523,4.0622859 194.78394,9.24036 192.86361,20.942269 c -0.97457,5.938778 -1.98128,11.343286 -2.23713,12.010017 -0.25585,0.666732 -6.16866,3.028114 -13.13958,5.247517 -14.49974,4.616429 -16.4244,5.730699 -16.4244,9.508801 0,3.915476 3.37666,6.968677 11.73951,10.614949 l 7.32874,3.19539 4.59088,-2.690431 c 2.52498,-1.479737 4.59087,-3.026577 4.59087,-3.437423 0,-0.410845 -3.15,-1.982852 -7,-3.493347 -3.96687,-1.556348 -7,-3.345408 -7,-4.128877 0,-0.882084 3.71024,-2.521705 10.25,-4.529657 5.6375,-1.730924 10.56828,-3.4348 10.95728,-3.786391 0.38901,-0.351592 1.54023,-5.359868 2.55828,-11.129503 2.37947,-13.485291 3.39729,-13.804641 9.7052,-3.045067 2.59534,4.42695 5.11463,8.293636 5.59842,8.592636 0.48379,0.298999 5.05364,-0.600482 10.15522,-1.998848 10.1254,-2.775418 12.7756,-3.088166 12.7756,-1.507643 0,0.569947 -3.3315,4.940546 -7.40334,9.712443 l -7.40334,8.676176 4.40334,8.767575 c 4.00494,7.974311 5.26802,11.807539 3.89068,11.807539 -0.28196,0 -3.65696,-0.871331 -7.5,-1.936291 l -6.98734,-1.936292 0.0703,2.686292 c 0.13456,5.143191 1.32009,6.359978 8.48604,8.709793 8.48863,2.78354 14.13824,3.06288 16.61493,0.82151 z m -27.48815,-9.532512 c -0.31922,-0.797733 -0.55618,-0.560776 -0.60416,0.604167 -0.0434,1.054166 0.19292,1.644791 0.52522,1.3125 0.33229,-0.332292 0.36781,-1.194792 0.0789,-1.916667 z"
     id="path3564"
     inkscape:connector-curvature="0" />
</svg>
